<svg xmlns="http://www.w3.org/2000/svg" viewBox="0 0 640 640"><path d="M197.8 100.3a23.94 23.94 0 0 1 5.9 33.4l-56 80c-4.1 5.8-10.5 9.5-17.6 10.1S116 222 111 217l-40-40a24.2 24.2 0 0 1 0-34c9.3-9.4 24.6-9.3 34 0l19.8 19.8 39.6-56.6a23.94 23.94 0 0 1 33.4-5.9m0 160a23.94 23.94 0 0 1 5.9 33.4l-56 80c-4.1 5.8-10.5 9.5-17.6 10.1S116 382 111 377l-40-40a23.9 23.9 0 0 1 0-33.9c9.4-9.3 24.6-9.4 33.9 0l19.8 19.8 39.6-56.6a23.94 23.94 0 0 1 33.4-5.9zM288 160c0-17.7 14.3-32 32-32h224c17.7 0 32 14.3 32 32s-14.3 32-32 32H320c-17.7 0-32-14.3-32-32m0 160c0-17.7 14.3-32 32-32h224c17.7 0 32 14.3 32 32s-14.3 32-32 32H320c-17.7 0-32-14.3-32-32m-64 160c0-17.7 14.3-32 32-32h288c17.7 0 32 14.3 32 32s-14.3 32-32 32H256c-17.7 0-32-14.3-32-32m-96-40c22.1 0 40 17.9 40 40s-17.9 40-40 40-40-17.9-40-40 17.9-40 40-40"/></svg>
