<svg xmlns="http://www.w3.org/2000/svg" viewBox="0 0 640 640"><path d="M203.7 133.8c7.6-10.9 5-25.8-5.9-33.4s-25.8-5-33.4 5.9l-39.7 56.5L105 143a24.2 24.2 0 0 0-34 0c-9.4 9.3-9.3 24.6 0 34l40 40c5 5 12 7.6 19.1 6.9s13.5-4.3 17.6-10.1zm0 160c7.6-10.9 5-25.8-5.9-33.4s-25.8-5-33.4 5.9l-39.7 56.5L105 303a23.9 23.9 0 0 0-33.9 0 24.2 24.2 0 0 0-.1 34l40 40c5 5 12 7.6 19.1 6.9s13.5-4.3 17.6-10.1zM256 160c0 13.3 10.7 24 24 24h272c13.3 0 24-10.7 24-24s-10.7-24-24-24H280c-13.3 0-24 10.7-24 24m0 160c0 13.3 10.7 24 24 24h272c13.3 0 24-10.7 24-24s-10.7-24-24-24H280c-13.3 0-24 10.7-24 24m-32 160c0 13.3 10.7 24 24 24h304c13.3 0 24-10.7 24-24s-10.7-24-24-24H248c-13.3 0-24 10.7-24 24m-64 0c0-17.7-14.3-32-32-32s-32 14.3-32 32 14.3 32 32 32 32-14.3 32-32"/></svg>
