<svg xmlns="http://www.w3.org/2000/svg" viewBox="0 0 640 640"><path d="M280 160h80c13.3 0 24-10.7 24-24s-10.7-24-24-24h-80c-13.3 0-24 10.7-24 24s10.7 24 24 24m0 48c-37.1 0-67.6-28-71.6-64H192c-8.8 0-16 7.2-16 16v352c0 8.8 7.2 16 16 16h256c8.8 0 16-7.2 16-16V160c0-8.8-7.2-16-16-16h-16.4c-4 36-34.5 64-71.6 64zm80-144c25 0 47 12.7 59.9 32H448c35.3 0 64 28.7 64 64v352c0 35.3-28.7 64-64 64H192c-35.3 0-64-28.7-64-64V160c0-35.3 28.7-64 64-64h28.1A71.9 71.9 0 0 1 280 64zm-60.8 193.1a19.2 19.2 0 0 1 2.8 27l-45.3 56c-3.7 4.5-9.2 7.1-15 7.1s-11.3-2.7-14.9-7.2l-24.9-31.1a19.22 19.22 0 0 1 30-24l10 12.5 30.3-37.5a19.2 19.2 0 0 1 27-2.8M320 320c0-13.3 10.7-24 24-24h64c13.3 0 24 10.7 24 24s-10.7 24-24 24h-64c-13.3 0-24-10.7-24-24m-16 96c0-13.3 10.7-24 24-24h80c13.3 0 24 10.7 24 24s-10.7 24-24 24h-80c-13.3 0-24-10.7-24-24m-64-32c17.7 0 32 14.3 32 32s-14.3 32-32 32-32-14.3-32-32 14.3-32 32-32"/></svg>
