<svg xmlns="http://www.w3.org/2000/svg" viewBox="0 0 640 640"><path d="M128 224c35.3 0 64-28.7 64-64s-28.7-64-64-64-64 28.7-64 64 28.7 64 64 64m160-96c-17.7 0-32 14.3-32 32s14.3 32 32 32h256c17.7 0 32-14.3 32-32s-14.3-32-32-32zm0 160c-17.7 0-32 14.3-32 32s14.3 32 32 32h256c17.7 0 32-14.3 32-32s-14.3-32-32-32zm0 160c-17.7 0-32 14.3-32 32s14.3 32 32 32h256c17.7 0 32-14.3 32-32s-14.3-32-32-32zm-184 32c0-13.3 10.7-24 24-24s24 10.7 24 24-10.7 24-24 24-24-10.7-24-24m88 0c0-35.3-28.7-64-64-64s-64 28.7-64 64 28.7 64 64 64 64-28.7 64-64m-64-184c13.3 0 24 10.7 24 24s-10.7 24-24 24-24-10.7-24-24 10.7-24 24-24m0 88c35.3 0 64-28.7 64-64s-28.7-64-64-64-64 28.7-64 64 28.7 64 64 64"/></svg>
