<svg xmlns="http://www.w3.org/2000/svg" viewBox="0 0 640 640"><path d="M224 118.9c0-30.3 24.6-54.9 54.9-54.9 5 0 9.1 4.1 9.1 9.1 0 30.3-24.6 54.9-54.9 54.9-5 0-9.1-4.1-9.1-9.1M96 235.4c0-43.6 20.4-91.4 64-91.4 15.6 0 34.1 5.9 47.2 11a46 46 0 0 0 33.5 0c13.1-5.1 31.6-11 47.2-11 43.6 0 64 47.8 64 91.4 0 7-.4 13.9-1.2 20.6H97.2c-.8-6.7-1.2-13.5-1.2-20.6M383 256c.7-6.7 1-13.6 1-20.6 0-26.1-6-55.1-20.3-78.6-2.7-4.4-5.7-8.7-9-12.7 15 .6 32.2 6.1 44.6 11a46 46 0 0 0 33.5 0c13.1-5.1 31.6-11 47.2-11 43.6 0 64 47.8 64 91.4 0 7-.4 13.9-1.2 20.6zm87.9-192c5 0 9.1 4.1 9.1 9.1 0 30.3-24.6 54.9-54.9 54.9-5 0-9.1-4.1-9.1-9.1 0-30.3 24.6-54.9 54.9-54.9M64 336c0-26.5 21.5-48 48-48h416c26.5 0 48 21.5 48 48v80H64zm0 112h512v80c0 26.5-21.5 48-48 48H112c-26.5 0-48-21.5-48-48zm80-96c0-8.8-7.2-16-16-16s-16 7.2-16 16 7.2 16 16 16 16-7.2 16-16m-16 176c8.8 0 16-7.2 16-16s-7.2-16-16-16-16 7.2-16 16 7.2 16 16 16m400-176c0-8.8-7.2-16-16-16s-16 7.2-16 16 7.2 16 16 16 16-7.2 16-16m-16 176c8.8 0 16-7.2 16-16s-7.2-16-16-16-16 7.2-16 16 7.2 16 16 16"/></svg>
