<svg xmlns="http://www.w3.org/2000/svg" viewBox="0 0 640 640"><path d="M224 118.9c0 5 4.1 9.1 9.1 9.1 30.3 0 54.9-24.6 54.9-54.9 0-5-4.1-9.1-9.1-9.1-30.3 0-54.9 24.6-54.9 54.9m-80 116.5c0-15.3 3.8-29 8.7-37.2 2.3-3.8 4.1-5.3 4.9-5.7.4-.2.8-.5 2.4-.5 2.2 0 6.5.5 12.6 2.1 5.8 1.5 11.9 3.6 17.2 5.7 21.9 8.5 46.4 8.5 68.3 0 5.4-2.1 11.4-4.2 17.2-5.7 6.1-1.6 10.3-2.1 12.6-2.1 1.6 0 2.1.3 2.4.5.7.5 2.6 1.9 4.9 5.7 4.9 8.2 8.7 21.9 8.7 37.2 0 7.2-.6 14.1-1.7 20.6h48.5c.8-6.7 1.2-13.5 1.2-20.6 0-43.6-20.4-91.4-64-91.4-15.6 0-34.1 5.9-47.2 11a46 46 0 0 1-33.5 0c-13.1-5.1-31.6-11-47.2-11-43.6 0-64 47.8-64 91.4 0 7 .4 13.9 1.2 20.6h48.5c-1.1-6.5-1.7-13.3-1.7-20.6M494.3 256h48.5c.8-6.7 1.2-13.5 1.2-20.6 0-43.6-20.4-91.4-64-91.4-15.6 0-34.1 5.9-47.2 11a46 46 0 0 1-33.5 0c-12.4-4.8-29.6-10.3-44.6-11 3.4 4 6.4 8.3 9 12.7 7.8 12.9 13.2 27.5 16.4 42.3l1.7.7c21.9 8.5 46.4 8.5 68.3 0 5.4-2.1 11.4-4.2 17.2-5.7 6.1-1.6 10.3-2.1 12.6-2.1 1.6 0 2.1.3 2.4.5.7.5 2.6 1.9 4.9 5.7 4.9 8.2 8.7 21.9 8.7 37.2 0 7.2-.6 14.1-1.7 20.6zM470.9 64c-30.3 0-54.9 24.6-54.9 54.9 0 5 4.1 9.1 9.1 9.1 30.3 0 54.9-24.6 54.9-54.9 0-5-4.1-9.1-9.1-9.1M520 336c4.4 0 8 3.6 8 8v64H112v-64c0-4.4 3.6-8 8-8zM112 520v-64h416v64c0 4.4-3.6 8-8 8H120c-4.4 0-8-3.6-8-8m8-232c-30.9 0-56 25.1-56 56v176c0 30.9 25.1 56 56 56h400c30.9 0 56-25.1 56-56V344c0-30.9-25.1-56-56-56zm360 96c8.8 0 16-7.2 16-16s-7.2-16-16-16-16 7.2-16 16 7.2 16 16 16m16 112c0-8.8-7.2-16-16-16s-16 7.2-16 16 7.2 16 16 16 16-7.2 16-16M160 384c8.8 0 16-7.2 16-16s-7.2-16-16-16-16 7.2-16 16 7.2 16 16 16m16 112c0-8.8-7.2-16-16-16s-16 7.2-16 16 7.2 16 16 16 16-7.2 16-16"/></svg>
