<svg xmlns="http://www.w3.org/2000/svg" viewBox="0 0 640 640"><path fill="#16a34a" d="M425.63 100.36c22.97 0 41.46-18.36 41.46-41.18S448.6 18 425.63 18H232.17c-22.98 0-41.46 18.36-41.46 41.18s18.48 41.18 41.46 41.18zm-160.3 139.16c-14.16-11.5-35.06-9.26-46.64 4.8l-52.34 64.36-17.27-21.45c-11.4-14.25-32.3-16.48-46.64-5.15a32.8 32.8 0 0 0-5.18 46.33l43.01 53.36a33.2 33.2 0 0 0 25.74 12.36 33.6 33.6 0 0 0 25.91-12.19l78.25-96.09c11.57-14.07 9.33-34.83-4.84-46.33m35.93 107.93c0 22.83 18.48 41.19 41.46 41.19h165.82c22.98 0 41.46-18.36 41.46-41.18s-18.48-41.19-41.46-41.19H342.72c-22.98 0-41.46 18.36-41.46 41.19m0 219.64c0 22.82 18.48 41.18 41.46 41.18h165.82c22.98 0 41.46-18.36 41.46-41.18s-18.48-41.18-41.46-41.18H342.72c-22.98 0-41.46 18.36-41.46 41.18M163.07 622c30.58 0 55.28-24.54 55.28-54.9 0-30.38-24.7-54.92-55.28-54.92-30.57 0-55.27 24.54-55.27 54.91S132.5 622 163.07 622"/></svg>

